#!OML:ASF G:\JayActor3\Patient Classification 1\Patient 1\Session 5\male.ASF
:FULLY-SPECIFIED
:DEGREES
716
root 13.7491 17.4283 -5.50118 182.852 -86.4327 -186.49
lowerback 1.62386 -1.03702 -0.446513
upperback 0.56994 -1.39903 -0.800993
thorax -0.33587 -0.701776 -0.542964
lowerneck -4.40539 1.03763 2.66637
upperneck 11.351 0.942733 0.79447
head 4.55343 0.56342 -0.159903
rclavicle -9.10682e-015 -1.59028e-015
rhumerus -37.2541 -10.0014 -85.4977
rradius 24.9398
rwrist 5.81387
rhand -18.7032 -9.82024
rfingers 7.12502
rthumb 7.59161 -39.664
lclavicle -9.10682e-015 -1.59028e-015
lhumerus -34.5014 8.57619 81.4741
lradius 22.7327
lwrist 15.1118
lhand -18.2108 13.1771
lfingers 7.12502
lthumb 8.06685 43.0031
rfemur -16.0934 4.37012 21.6956
rtibia 60.902
rfoot -3.20518 -3.84007
rtoes -7.17722
lfemur -0.868853 9.9574 -20.92
ltibia 23.8359
lfoot 4.41792 -12.3784
ltoes -17.6582
717
root 13.8615 17.4347 -5.50167 183.008 -86.4879 -186.671
lowerback 1.52253 -1.0571 -0.432311
upperback 0.558411 -1.42474 -0.825857
thorax -0.292062 -0.714608 -0.577801
lowerneck -4.38833 1.03333 2.6507
upperneck 11.3407 0.934144 0.83576
head 4.54566 0.560303 -0.143725
rclavicle -1.41572e-014 5.36719e-015
rhumerus -37.2882 -10.0496 -85.4605
rradius 24.976
rwrist 5.80129
rhand -18.6729 -9.86105
rfingers 7.12502
rthumb 7.62092 -39.7037
lclavicle -1.41572e-014 5.36719e-015
lhumerus -34.5719 8.7103 81.3344
lradius 22.6091
lwrist 14.9339
lhand -18.2352 13.207
lfingers 7.12502
lthumb 8.04335 43.034
rfemur -15.0374 4.37846 21.7533
rtibia 61.4773
rfoot -1.71947 -3.88913
rtoes -5.56915
lfemur -1.17068 9.89417 -20.9021
ltibia 23.6554
lfoot 4.81137 -12.4595
ltoes -17.2198
718
root 13.9736 17.4413 -5.50314 183.215 -86.5174 -186.893
lowerback 1.40221 -1.06768 -0.428696
upperback 0.548786 -1.43775 -0.850082
thorax -0.235334 -0.721096 -0.606756
lowerneck -4.37958 1.02878 2.63662
upperneck 11.3389 0.925096 0.872478
head 4.54276 0.556885 -0.129345
rclavicle 1.43995e-014 5.96354e-015
rhumerus -37.3121 -10.0768 -85.435
rradius 25.0228
rwrist 5.7725
rhand -18.6238 -9.91019
rfingers 7.12502
rthumb 7.66827 -39.7512
lclavicle 1.43995e-014 5.96354e-015
lhumerus -34.6335 8.85624 81.1907
lradius 22.5115
lwrist 14.7926
lhand -18.2683 13.2305
lfingers 7.12502
lthumb 8.01139 43.0587
rfemur -13.9726 4.44623 21.8136
rtibia 61.9126
rfoot -0.0493259 -4.05729
rtoes -3.94368
lfemur -1.44223 9.79657 -20.8915
ltibia 23.408
lfoot 5.21475 -12.4795
ltoes -16.7946
719
root 14.0856 17.4473 -5.50538 183.303 -86.526 -186.985
lowerback 1.27126 -1.07058 -0.425214
upperback 0.538268 -1.44037 -0.869725
thorax -0.173372 -0.722366 -0.631356
lowerneck -4.3836 1.02343 2.62625
upperneck 11.3529 0.914788 0.90039
head 4.54834 0.552701 -0.118567
rclavicle 1.36664e-014 -3.57812e-015
rhumerus -37.3289 -10.0813 -85.4183
rradius 25.0818
rwrist 5.72495
rhand -18.5509 -9.96572
rfingers 7.12502
rthumb 7.73864 -39.8041
lclavicle 1.36664e-014 -3.57812e-015
lhumerus -34.6901 9.01445 81.0443
lradius 22.4362
lwrist 14.6887
lhand -18.3156 13.2363
lfingers 7.12502
lthumb 7.96574 43.0662
rfemur -12.8987 4.56208 21.8863
rtibia 62.1998
rfoot 1.77939 -4.31487
rtoes -2.40073
lfemur -1.7044 9.6913 -20.8694
ltibia 23.1288
lfoot 5.62611 -12.4814
ltoes -16.3761
720
root 14.1978 17.4526 -5.50805 183.279 -86.5236 -186.957
lowerback 1.13538 -1.06857 -0.417252
upperback 0.523478 -1.4363 -0.885782
thorax -0.112974 -0.720268 -0.65494
lowerneck -4.3962 1.01652 2.61861
upperneck 11.3853 0.901932 0.921989
head 4.56243 0.547156 -0.11045
rclavicle 2.79106e-014 3.97569e-016
rhumerus -37.3468 -10.0568 -85.4124
rradius 25.1589
rwrist 5.64837
rhand -18.4582 -10.0366
rfingers 7.12502
rthumb 7.82815 -39.8717
lclavicle 2.79106e-014 3.97569e-016
lhumerus -34.7424 9.18448 80.8952
lradius 22.3693
lwrist 14.6243
lhand -18.3711 13.2145
lfingers 7.12502
lthumb 7.91216 43.0464
rfemur -11.8097 4.70449 21.9666
rtibia 62.3276
rfoot 3.72381 -4.61505
rtoes -1.06647
lfemur -1.97424 9.60914 -20.8318
ltibia 22.8484
lfoot 6.04081 -12.5151
ltoes -15.9827
721
root 14.3102 17.4569 -5.51099 182.866 -86.5145 -186.537
lowerback 1.00584 -1.06122 -0.383754
upperback 0.503349 -1.42491 -0.895152
thorax -0.0619714 -0.71443 -0.685842
lowerneck -4.41332 1.00667 2.61197
upperneck 11.4337 0.884579 0.940632
head 4.58332 0.539339 -0.103688
rclavicle -5.60945e-015 3.77691e-015
rhumerus -37.375 -10.0165 -85.4097
rradius 25.2479
rwrist 5.56437
rhand -18.36 -10.0853
rfingers 7.12502
rthumb 7.92287 -39.9169
lclavicle -5.60945e-015 3.77691e-015
lhumerus -34.7949 9.3475 80.7509
lradius 22.3085
lwrist 14.616
lhand -18.4441 13.1563
lfingers 7.12502
lthumb 7.84176 42.9908
rfemur -10.6974 4.85979 22.0721
rtibia 62.2823
rfoot 5.75934 -4.92484
rtoes 0.0681709
lfemur -2.26123 9.57827 -20.7572
ltibia 22.5935
lfoot 6.45769 -12.6166
ltoes -15.6158
722
root 14.4228 17.4606 -5.51382 182.075 -86.511 -185.741
lowerback 0.890508 -1.05184 -0.318498
upperback 0.475571 -1.41077 -0.899098
thorax -0.0273348 -0.70713 -0.728573
lowerneck -4.42851 0.993203 2.60273
upperneck 11.494 0.862056 0.959402
head 4.60812 0.528852 -0.096673
rclavicle 1.80149e-015 1.11319e-014
rhumerus -37.4167 -9.95236 -85.4147
rradius 25.3512
rwrist 5.44294
rhand -18.2729 -10.1399
rfingers 7.12502
rthumb 8.00693 -39.9682
lclavicle 1.80149e-015 1.11319e-014
lhumerus -34.8473 9.50301 80.6103
lradius 22.2443
lwrist 14.6624
lhand -18.5185 13.0707
lfingers 7.12502
lthumb 7.76993 42.9079
rfemur -9.55899 5.00232 22.1979
rtibia 62.0532
rfoot 7.90276 -5.25303
rtoes 1.17009
lfemur -2.57256 9.60163 -20.6494
ltibia 22.3813
lfoot 6.87242 -12.7929
ltoes -15.2667
723
root 14.5356 17.4638 -5.51665 180.753 -86.5135 -184.413
lowerback 0.790215 -1.04208 -0.213045
upperback 0.439579 -1.39608 -0.89473
thorax -0.0102308 -0.699464 -0.784862
lowerneck -4.43619 0.978234 2.58937
upperneck 11.5596 0.837317 0.981774
head 4.63329 0.517196 -0.0878432
rclavicle -5.32991e-015 2.5842e-015
rhumerus -37.4741 -9.88235 -85.4172
rradius 25.461
rwrist 5.32464
rhand -18.1943 -10.1727
rfingers 7.12502
rthumb 8.08277 -39.9981
lclavicle -5.32991e-015 2.5842e-015
lhumerus -34.8998 9.65992 80.4682
lradius 22.1675
lwrist 14.7539
lhand -18.5945 12.971
lfingers 7.12502
lthumb 7.69659 42.8109
rfemur -8.40109 5.12584 22.3564
rtibia 61.6333
rfoot 10.1746 -5.668
rtoes 2.35754
lfemur -2.91511 9.66774 -20.5045
ltibia 22.2239
lfoot 7.27697 -13.0245
ltoes -14.9351
724
root 14.6488 17.4667 -5.51931 178.909 -86.5212 -182.563
lowerback 0.705153 -1.03276 -0.0656963
upperback 0.396361 -1.38199 -0.882607
thorax -0.00980322 -0.692051 -0.856248
lowerneck -4.43859 0.962306 2.57076
upperneck 11.6286 0.811231 1.00774
head 4.65863 0.504773 -0.0769469
rclavicle -1.83876e-015 -5.96354e-015
rhumerus -37.5412 -9.8067 -85.4183
rradius 25.5724
rwrist 5.19993
rhand -18.1403 -10.1971
rfingers 7.12502
rthumb 8.1349 -40.0205
lclavicle -1.83876e-015 -5.96354e-015
lhumerus -34.9439 9.83815 80.3153
lradius 22.061
lwrist 14.8624
lhand -18.66 12.8483
lfingers 7.12502
lthumb 7.63336 42.6906
rfemur -7.23103 5.2279 22.5468
rtibia 61.0201
rfoot 12.5653 -6.28031
rtoes 3.77569
lfemur -3.29017 9.74877 -20.3336
ltibia 22.123
lfoot 7.65113 -13.2724
ltoes -14.6333
725
root 14.7624 17.4688 -5.52195 176.528 -86.532 -180.174
lowerback 0.62941 -1.02371 0.122778
upperback 0.34768 -1.36824 -0.862787
thorax -0.0208944 -0.684826 -0.942521
lowerneck -4.43096 0.945068 2.54948
upperneck 11.6933 0.78374 1.03542
head 4.68031 0.491527 -0.0651231
rclavicle 4.77083e-015 -1.59028e-015
rhumerus -37.6168 -9.74021 -85.4119
rradius 25.6828
rwrist 5.08837
rhand -18.0988 -10.2174
rfingers 7.12502
rthumb 8.17496 -40.0393
lclavicle 4.77083e-015 -1.59028e-015
lhumerus -34.9765 10.0475 80.1453
lradius 21.9211
lwrist 14.9625
lhand -18.7117 12.7133
lfingers 7.12502
lthumb 7.58341 42.5574
rfemur -6.05533 5.31511 22.7754
rtibia 60.2146
rfoot 15.0247 -7.18492
rtoes 5.3498
lfemur -3.69932 9.81047 -20.1425
ltibia 22.0794
lfoot 7.98209 -13.4924
ltoes -14.3477
726
root 14.8766 17.4702 -5.52461 173.732 -86.5362 -177.368
lowerback 0.560368 -1.01201 0.347073
upperback 0.294377 -1.35105 -0.83977
thorax -0.0410659 -0.675971 -1.04542
lowerneck -4.40913 0.925023 2.53103
upperneck 11.7491 0.752801 1.06288
head 4.69587 0.476547 -0.054147
rclavicle -5.5287e-015 2.98177e-015
rhumerus -37.6987 -9.68888 -85.4006
rradius 25.7929
rwrist 4.98734
rhand -18.0671 -10.2514
rfingers 7.12502
rthumb 8.2056 -40.072
lclavicle -5.5287e-015 2.98177e-015
lhumerus -35.0005 10.2921 79.9512
lradius 21.7511
lwrist 15.0324
lhand -18.7415 12.5829
lfingers 7.12502
lthumb 7.55471 42.428
rfemur -4.87858 5.39839 23.0374
rtibia 59.2199
rfoot 17.4942 -8.41501
rtoes 6.99251
lfemur -4.13935 9.82915 -19.9451
ltibia 22.0867
lfoot 8.23374 -13.6751
ltoes -14.204
727
root 14.9917 17.4707 -5.52749 170.605 -86.5251 -174.224
lowerback 0.491328 -0.997521 0.600896
upperback 0.241866 -1.33025 -0.813124
thorax -0.0608067 -0.665425 -1.16119
lowerneck -4.38699 0.904459 2.51667
upperneck 11.7967 0.721642 1.08623
head 4.70839 0.461437 -0.0453297
rclavicle -7.97623e-015 -1.98785e-016
rhumerus -37.7736 -9.65627 -85.3826
rradius 25.8896
rwrist 4.91679
rhand -18.0496 -10.2673
rfingers 7.12502
rthumb 8.22244 -40.0873
lclavicle -7.97623e-015 -1.98785e-016
lhumerus -35.0061 10.5822 79.7309
lradius 21.5486
lwrist 15.0494
lhand -18.7529 12.4557
lfingers 7.12502
lthumb 7.54363 42.3011
rfemur -3.70737 5.49281 23.3349
rtibia 58.0412
rfoot 19.8444 -9.89629
rtoes 8.58176
lfemur -4.61115 9.78859 -19.7462
ltibia 22.138
lfoot 8.41328 -13.7855
ltoes -14.115
